<mxfile host="app.diagrams.net" modified="2021-10-03T20:24:44.753Z" agent="5.0 (Windows NT 10.0; Win64; x64) AppleWebKit/537.36 (KHTML, like Gecko) Chrome/94.0.4606.61 Safari/537.36" etag="a6V7e_349pF1XUfJjo_p" version="15.4.1" type="github">
  <diagram id="pr6-6IX_TH8d-5Epqw9A" name="Page-1">
    <mxGraphModel dx="1038" dy="575" grid="1" gridSize="10" guides="1" tooltips="1" connect="1" arrows="1" fold="1" page="1" pageScale="1" pageWidth="850" pageHeight="1100" math="0" shadow="0">
      <root>
        <mxCell id="0" />
        <mxCell id="1" parent="0" />
        <mxCell id="vsX13Wg-FysM-N8CQmJG-1" value="Create or Update a Repair" style="ellipse;whiteSpace=wrap;html=1;" vertex="1" parent="1">
          <mxGeometry x="365" y="80" width="120" height="80" as="geometry" />
        </mxCell>
        <mxCell id="vsX13Wg-FysM-N8CQmJG-5" value="" style="endArrow=none;html=1;rounded=0;entryX=0.23;entryY=0.92;entryDx=0;entryDy=0;entryPerimeter=0;exitX=0.717;exitY=0.07;exitDx=0;exitDy=0;exitPerimeter=0;" edge="1" parent="1" source="vsX13Wg-FysM-N8CQmJG-8" target="vsX13Wg-FysM-N8CQmJG-1">
          <mxGeometry width="50" height="50" relative="1" as="geometry">
            <mxPoint x="300" y="230" as="sourcePoint" />
            <mxPoint x="450" y="270" as="targetPoint" />
          </mxGeometry>
        </mxCell>
        <mxCell id="vsX13Wg-FysM-N8CQmJG-6" value="Create Repair" style="ellipse;whiteSpace=wrap;html=1;" vertex="1" parent="1">
          <mxGeometry x="400" y="220" width="120" height="80" as="geometry" />
        </mxCell>
        <mxCell id="vsX13Wg-FysM-N8CQmJG-7" value="Customer Search" style="ellipse;whiteSpace=wrap;html=1;" vertex="1" parent="1">
          <mxGeometry x="250" y="210" width="120" height="80" as="geometry" />
        </mxCell>
        <mxCell id="vsX13Wg-FysM-N8CQmJG-8" value="Vehicle Search" style="ellipse;whiteSpace=wrap;html=1;" vertex="1" parent="1">
          <mxGeometry x="120" y="190" width="120" height="80" as="geometry" />
        </mxCell>
        <mxCell id="vsX13Wg-FysM-N8CQmJG-9" value="" style="endArrow=none;html=1;rounded=0;entryX=0.5;entryY=1;entryDx=0;entryDy=0;" edge="1" parent="1" source="vsX13Wg-FysM-N8CQmJG-7" target="vsX13Wg-FysM-N8CQmJG-1">
          <mxGeometry width="50" height="50" relative="1" as="geometry">
            <mxPoint x="296.03999999999996" y="245.60000000000002" as="sourcePoint" />
            <mxPoint x="347.5999999999999" y="193.60000000000002" as="targetPoint" />
          </mxGeometry>
        </mxCell>
        <mxCell id="vsX13Wg-FysM-N8CQmJG-10" value="" style="endArrow=none;html=1;rounded=0;" edge="1" parent="1" source="vsX13Wg-FysM-N8CQmJG-6" target="vsX13Wg-FysM-N8CQmJG-1">
          <mxGeometry width="50" height="50" relative="1" as="geometry">
            <mxPoint x="306.03999999999996" y="255.60000000000002" as="sourcePoint" />
            <mxPoint x="357.5999999999999" y="203.60000000000002" as="targetPoint" />
          </mxGeometry>
        </mxCell>
        <mxCell id="vsX13Wg-FysM-N8CQmJG-11" value="" style="endArrow=none;html=1;rounded=0;entryX=1;entryY=1;entryDx=0;entryDy=0;" edge="1" parent="1" source="vsX13Wg-FysM-N8CQmJG-14" target="vsX13Wg-FysM-N8CQmJG-1">
          <mxGeometry width="50" height="50" relative="1" as="geometry">
            <mxPoint x="520" y="200" as="sourcePoint" />
            <mxPoint x="431.96000000000004" y="173.60000000000002" as="targetPoint" />
          </mxGeometry>
        </mxCell>
        <mxCell id="vsX13Wg-FysM-N8CQmJG-12" value="" style="endArrow=none;html=1;rounded=0;entryX=1.01;entryY=0.665;entryDx=0;entryDy=0;entryPerimeter=0;" edge="1" parent="1" source="vsX13Wg-FysM-N8CQmJG-13" target="vsX13Wg-FysM-N8CQmJG-1">
          <mxGeometry width="50" height="50" relative="1" as="geometry">
            <mxPoint x="580" y="160" as="sourcePoint" />
            <mxPoint x="441.96000000000004" y="183.60000000000002" as="targetPoint" />
          </mxGeometry>
        </mxCell>
        <mxCell id="vsX13Wg-FysM-N8CQmJG-13" value="Update Labor Charges" style="ellipse;whiteSpace=wrap;html=1;" vertex="1" parent="1">
          <mxGeometry x="630" y="130" width="120" height="80" as="geometry" />
        </mxCell>
        <mxCell id="vsX13Wg-FysM-N8CQmJG-14" value="Update Existing Repair Form" style="ellipse;whiteSpace=wrap;html=1;" vertex="1" parent="1">
          <mxGeometry x="530" y="190" width="120" height="80" as="geometry" />
        </mxCell>
        <mxCell id="vsX13Wg-FysM-N8CQmJG-15" value="Sales Order" style="ellipse;whiteSpace=wrap;html=1;" vertex="1" parent="1">
          <mxGeometry x="305" y="370" width="120" height="80" as="geometry" />
        </mxCell>
      </root>
    </mxGraphModel>
  </diagram>
</mxfile>
